HIERARCHY
ROOT Hips
{
	OFFSET 0.000000 83.214638 0.000000
	CHANNELS 6 Xposition Yposition Zposition Xrotation Yrotation Zrotation
	JOINT Pelvis
	{
		OFFSET 0.000000 0.000000 0.000000
		CHANNELS 3 Xrotation Yrotation Zrotation
		JOINT LeftUpLeg
		{
			OFFSET 8.479700 -4.795502 -0.379100
			CHANNELS 3 Xrotation Yrotation Zrotation
			JOINT LeftLeg
			{
				OFFSET 0.024144 -32.555107 0.112900
				CHANNELS 3 Xrotation Yrotation Zrotation
				JOINT LeftFoot
				{
					OFFSET -0.024144 -32.638630 -3.012600
					CHANNELS 3 Xrotation Yrotation Zrotation
					JOINT LeftToeBase
					{
						OFFSET 0.970200 -13.225400 11.864200
						CHANNELS 3 Xrotation Yrotation Zrotation
						End Site
						{
							OFFSET 0.000000 12.319262 0.000000
						}
					}
					JOINT LFootTongue
					{
						OFFSET 1.142400 -1.059800 6.665200
						CHANNELS 3 Xrotation Yrotation Zrotation
						End Site
						{
							OFFSET 0.000000 12.319262 0.000000
						}
					}
				}
				JOINT LeftPantLeg
				{
					OFFSET 0.918482 -16.533964 -2.284700
					CHANNELS 3 Xrotation Yrotation Zrotation
					End Site
					{
						OFFSET 0.350399 24.744368 0.000000
					}
				}
			}
		}
		JOINT RightUpLeg
		{
			OFFSET -8.479700 -4.795502 -0.379100
			CHANNELS 3 Xrotation Yrotation Zrotation
			JOINT RightLeg
			{
				OFFSET -0.023144 -32.555092 0.112900
				CHANNELS 3 Xrotation Yrotation Zrotation
				JOINT RightFoot
				{
					OFFSET 0.023144 -32.638641 -3.012700
					CHANNELS 3 Xrotation Yrotation Zrotation
					JOINT RightToeBase
					{
						OFFSET -0.970200 -13.225400 11.864200
						CHANNELS 3 Xrotation Yrotation Zrotation
						End Site
						{
							OFFSET 0.000000 12.319244 0.000000
						}
					}
					JOINT RFootTongue
					{
						OFFSET -1.142200 -1.059800 6.665200
						CHANNELS 3 Xrotation Yrotation Zrotation
						End Site
						{
							OFFSET 0.000000 12.319243 0.000000
						}
					}
				}
				JOINT RightPantLeg
				{
					OFFSET -0.919482 -16.533978 -2.284800
					CHANNELS 3 Xrotation Yrotation Zrotation
					End Site
					{
						OFFSET -0.350400 24.744419 0.000000
					}
				}
			}
		}
	}
	JOINT Spine
	{
		OFFSET 0.000000 7.722000 1.166200
		CHANNELS 3 Xrotation Yrotation Zrotation
		JOINT Spine1
		{
			OFFSET 0.000000 12.024101 0.248800
			CHANNELS 3 Xrotation Yrotation Zrotation
			JOINT Spine2
			{
				OFFSET 0.000000 11.502998 -0.491200
				CHANNELS 3 Xrotation Yrotation Zrotation
				JOINT Neck
				{
					OFFSET 0.000000 18.430702 -3.123100
					CHANNELS 3 Xrotation Yrotation Zrotation
					JOINT Head
					{
						OFFSET 0.000000 9.051102 1.034000
						CHANNELS 3 Xrotation Yrotation Zrotation
						JOINT HairB
						{
							OFFSET 0.208400 24.786102 24.822300
							CHANNELS 3 Xrotation Yrotation Zrotation
							End Site
							{
								OFFSET 0.000000 32.263779 0.000000
							}
						}
						JOINT HairA
						{
							OFFSET -7.081100 24.428299 23.196600
							CHANNELS 3 Xrotation Yrotation Zrotation
							End Site
							{
								OFFSET 0.000000 32.263779 0.000000
							}
						}
						JOINT Hat
						{
							OFFSET 16.728800 15.048294 -15.439601
							CHANNELS 3 Xrotation Yrotation Zrotation
							End Site
							{
								OFFSET 0.000000 32.263779 0.000000
							}
						}
					}
				}
				JOINT LeftShoulder
				{
					OFFSET 6.197800 13.665199 -4.064700
					CHANNELS 3 Xrotation Yrotation Zrotation
					JOINT LeftArm
					{
						OFFSET 7.778100 -0.187103 -1.709300
						CHANNELS 3 Xrotation Yrotation Zrotation
						JOINT LeftForeArm
						{
							OFFSET 22.049376 0.000000 0.000000
							CHANNELS 3 Xrotation Yrotation Zrotation
							JOINT LeftHand
							{
								OFFSET 23.009392 0.000000 0.000000
								CHANNELS 3 Xrotation Yrotation Zrotation
								JOINT LeftHandThumb1
								{
									OFFSET 3.507191 -2.063065 3.133727
									CHANNELS 3 Xrotation Yrotation Zrotation
									JOINT LeftHandThumb2
									{
										OFFSET 3.101337 -1.790558 1.790558
										CHANNELS 3 Xrotation Yrotation Zrotation
										JOINT LeftHandThumb3
										{
											OFFSET 3.058640 -1.765907 1.765906
											CHANNELS 3 Xrotation Yrotation Zrotation
											End Site
											{
												OFFSET -0.415260 3.926476 -0.049563
											}
										}
									}
								}
								JOINT LeftHandIndex1
								{
									OFFSET 11.334419 -0.901459 3.706815
									CHANNELS 3 Xrotation Yrotation Zrotation
									JOINT LeftHandIndex2
									{
										OFFSET 3.283112 0.000000 0.000000
										CHANNELS 3 Xrotation Yrotation Zrotation
										JOINT LeftHandIndex3
										{
											OFFSET 3.323853 0.000000 0.000000
											CHANNELS 3 Xrotation Yrotation Zrotation
											End Site
											{
												OFFSET -1.135597 3.097809 0.402452
											}
										}
									}
								}
								JOINT LeftHandMiddle1
								{
									OFFSET 11.335861 0.000000 0.000000
									CHANNELS 3 Xrotation Yrotation Zrotation
									JOINT LeftHandMiddle2
									{
										OFFSET 3.410492 0.000000 0.000000
										CHANNELS 3 Xrotation Yrotation Zrotation
										JOINT LeftHandMiddle3
										{
											OFFSET 3.312172 0.000000 0.000000
											CHANNELS 3 Xrotation Yrotation Zrotation
											End Site
											{
												OFFSET -1.150200 3.080154 0.400270
											}
										}
									}
								}
								JOINT LeftHandRing1
								{
									OFFSET 11.514786 -0.013176 -3.003090
									CHANNELS 3 Xrotation Yrotation Zrotation
									JOINT LeftHandRing2
									{
										OFFSET 3.053307 0.000000 0.000000
										CHANNELS 3 Xrotation Yrotation Zrotation
										JOINT LeftHandRing3
										{
											OFFSET 3.295807 0.000000 0.000000
											CHANNELS 3 Xrotation Yrotation Zrotation
											End Site
											{
												OFFSET -1.281006 3.013344 0.375733
											}
										}
									}
								}
								JOINT LeftHandPinky1
								{
									OFFSET 10.518692 -0.960396 -5.730441
									CHANNELS 3 Xrotation Yrotation Zrotation
									JOINT LeftHandPinky2
									{
										OFFSET 2.861649 0.000000 0.000000
										CHANNELS 3 Xrotation Yrotation Zrotation
										JOINT LeftHandPinky3
										{
											OFFSET 2.863380 0.000000 0.000000
											CHANNELS 3 Xrotation Yrotation Zrotation
											End Site
											{
												OFFSET -0.843597 2.711159 0.369971
											}
										}
									}
								}
							}
							JOINT LSleeve
							{
								OFFSET 6.676277 -0.344902 -1.011730
								CHANNELS 3 Xrotation Yrotation Zrotation
								End Site
								{
									OFFSET 0.000000 14.885353 0.000000
								}
							}
						}
					}
				}
				JOINT RightShoulder
				{
					OFFSET -6.197800 13.665199 -4.064700
					CHANNELS 3 Xrotation Yrotation Zrotation
					JOINT RightArm
					{
						OFFSET -7.778100 -0.187103 -1.709300
						CHANNELS 3 Xrotation Yrotation Zrotation
						JOINT RightForeArm
						{
							OFFSET -22.049376 0.000000 0.000000
							CHANNELS 3 Xrotation Yrotation Zrotation
							JOINT RightHand
							{
								OFFSET -23.009392 0.000000 0.000000
								CHANNELS 3 Xrotation Yrotation Zrotation
								JOINT RightHandThumb1
								{
									OFFSET -3.507191 -2.063065 3.133727
									CHANNELS 3 Xrotation Yrotation Zrotation
									JOINT RightHandThumb2
									{
										OFFSET -3.101337 -1.790558 1.790558
										CHANNELS 3 Xrotation Yrotation Zrotation
										JOINT RightHandThumb3
										{
											OFFSET -3.058640 -1.765907 1.765906
											CHANNELS 3 Xrotation Yrotation Zrotation
											End Site
											{
												OFFSET 0.415260 3.926476 -0.049563
											}
										}
									}
								}
								JOINT RightHandIndex1
								{
									OFFSET -11.334419 -0.901459 3.706815
									CHANNELS 3 Xrotation Yrotation Zrotation
									JOINT RightHandIndex2
									{
										OFFSET -3.283112 0.000000 0.000000
										CHANNELS 3 Xrotation Yrotation Zrotation
										JOINT RightHandIndex3
										{
											OFFSET -3.323853 0.000000 0.000000
											CHANNELS 3 Xrotation Yrotation Zrotation
											End Site
											{
												OFFSET 1.135597 3.097809 0.402452
											}
										}
									}
								}
								JOINT RightHandMiddle1
								{
									OFFSET -11.335861 0.000000 0.000000
									CHANNELS 3 Xrotation Yrotation Zrotation
									JOINT RightHandMiddle2
									{
										OFFSET -3.410492 0.000000 0.000000
										CHANNELS 3 Xrotation Yrotation Zrotation
										JOINT RightHandMiddle3
										{
											OFFSET -3.312172 0.000000 0.000000
											CHANNELS 3 Xrotation Yrotation Zrotation
											End Site
											{
												OFFSET 1.150200 3.080154 0.400270
											}
										}
									}
								}
								JOINT RightHandRing1
								{
									OFFSET -11.514786 -0.013176 -3.003090
									CHANNELS 3 Xrotation Yrotation Zrotation
									JOINT RightHandRing2
									{
										OFFSET -3.053307 0.000000 0.000000
										CHANNELS 3 Xrotation Yrotation Zrotation
										JOINT RightHandRing3
										{
											OFFSET -3.295807 0.000000 0.000000
											CHANNELS 3 Xrotation Yrotation Zrotation
											End Site
											{
												OFFSET 1.281006 3.013344 0.375733
											}
										}
									}
								}
								JOINT RightHandPinky1
								{
									OFFSET -10.518692 -0.960396 -5.730441
									CHANNELS 3 Xrotation Yrotation Zrotation
									JOINT RightHandPinky2
									{
										OFFSET -2.861649 0.000000 0.000000
										CHANNELS 3 Xrotation Yrotation Zrotation
										JOINT RightHandPinky3
										{
											OFFSET -2.863380 0.000000 0.000000
											CHANNELS 3 Xrotation Yrotation Zrotation
											End Site
											{
												OFFSET 0.843597 2.711159 0.369971
											}
										}
									}
								}
							}
							JOINT RSleeve
							{
								OFFSET -6.676277 -0.344902 -1.011730
								CHANNELS 3 Xrotation Yrotation Zrotation
								End Site
								{
									OFFSET 0.000000 14.885353 0.000000
								}
							}
						}
					}
				}
				JOINT Backpack
				{
					OFFSET 0.000000 -2.471497 36.677502
					CHANNELS 3 Xrotation Yrotation Zrotation
					End Site
					{
						OFFSET 0.000000 20.427315 0.000000
					}
				}
				JOINT Hood
				{
					OFFSET 0.000000 18.754097 -10.431000
					CHANNELS 3 Xrotation Yrotation Zrotation
					JOINT Hood1
					{
						OFFSET 0.000000 -5.011002 -7.685901
						CHANNELS 3 Xrotation Yrotation Zrotation
						End Site
						{
							OFFSET 0.000000 9.175140 0.000000
						}
					}
				}
				JOINT LHoodieString
				{
					OFFSET 5.250500 16.397697 3.089900
					CHANNELS 3 Xrotation Yrotation Zrotation
					JOINT LHoodieString1
					{
						OFFSET 0.257700 -6.364304 3.694600
						CHANNELS 3 Xrotation Yrotation Zrotation
						JOINT LHoodieString2
						{
							OFFSET 0.000000 -9.643799 2.679100
							CHANNELS 3 Xrotation Yrotation Zrotation
							End Site
							{
								OFFSET 0.000000 10.009018 0.000000
							}
						}
					}
				}
				JOINT RHoodieString
				{
					OFFSET -5.250500 16.397697 3.089900
					CHANNELS 3 Xrotation Yrotation Zrotation
					JOINT RHoodieString1
					{
						OFFSET -0.257700 -6.364304 3.694600
						CHANNELS 3 Xrotation Yrotation Zrotation
						JOINT RHoodieString2
						{
							OFFSET 0.000000 -9.643799 2.679100
							CHANNELS 3 Xrotation Yrotation Zrotation
							End Site
							{
								OFFSET 0.000000 10.009018 0.000000
							}
						}
					}
				}
			}
			JOINT LBackpack_Strap
			{
				OFFSET 15.223200 -7.719803 -6.610900
				CHANNELS 3 Xrotation Yrotation Zrotation
				End Site
				{
					OFFSET 0.000000 16.040596 0.000000
				}
			}
			JOINT RBackpack_Strap
			{
				OFFSET -15.223000 -7.719803 -6.610900
				CHANNELS 3 Xrotation Yrotation Zrotation
				End Site
				{
					OFFSET 0.000000 16.040596 0.000000
				}
			}
		}
	}
	JOINT BoyFacialAnim_Joint
	{
		OFFSET 1.000000 -82.208099 -1.550900
		CHANNELS 3 Xrotation Yrotation Zrotation
		End Site
		{
			OFFSET 0.000000 30.012791 0.000000
		}
	}
}
MOTION
Frames: 5
Frame Time: 0.016667
7.843356 10.663452 -14.155266 -115.445114 73.372406 34.241258 0.000001 0.000000 0.000001 -92.225579 3.348506 0.562053 91.587755 0.839137 -0.253776 -1.621721 0.173932 -3.687985 -0.000000 0.000001 0.000000 -0.000000 0.000001 0.000000 0.000001 0.000000 0.000000 -37.937053 4.173878 8.139145 85.256969 -8.163918 -3.633275 38.229648 -1.457141 8.488866 -0.000000 0.000001 -0.000002 -0.000000 0.000001 -0.000002 -0.000001 0.000001 -0.000001 15.207869 -10.841694 -7.496221 10.269408 -4.988677 -4.175171 10.075512 -5.450799 -4.055233 -3.272616 7.228370 -14.282609 -28.199350 11.664150 -14.767919 0.000001 -0.000001 -0.000002 0.000001 -0.000001 -0.000002 0.000001 -0.000001 -0.000002 4.010585 -4.908948 30.425931 -98.272174 29.592963 -48.772274 0.000001 -29.022075 0.000000 0.131366 16.629472 8.536189 -1.540033 3.690188 6.142351 3.939057 7.948699 0.746809 -0.000001 0.000002 0.000002 0.000001 -0.000002 0.000009 0.000001 0.000008 -0.000018 -0.000001 0.000000 -0.000000 0.000007 -0.001928 0.015989 -0.000003 0.001932 -0.015994 -0.000000 0.000001 0.000000 -0.000000 0.000000 0.000005 0.000006 0.000006 -0.000029 0.000000 0.000000 -0.000002 -0.018081 4.054259 0.511072 -0.018090 -4.054247 -0.511081 -0.000001 -0.000000 0.000001 0.000000 0.000000 0.000000 5.201613 10.649075 -16.868037 -39.319528 45.122808 97.301229 -0.000138 102.936517 0.000143 5.604806 -5.065555 40.880776 -1.849247 -3.581792 -6.586151 4.637194 -8.634122 -0.225423 0.000000 0.000001 0.000000 0.000002 -0.000001 -0.000001 -0.000001 0.000002 0.000025 -0.000002 0.000000 0.000005 0.000006 -0.000003 -0.000012 -0.000002 0.000001 0.000016 0.000001 -0.000000 -0.000004 0.000005 -0.000003 -0.000005 -0.000010 0.000004 0.000031 0.000001 0.000000 0.000000 0.000003 -0.000000 -0.000006 -0.000002 0.000001 0.000002 -0.000001 -0.000000 -0.000002 -0.000000 -0.000000 -0.000004 -0.000002 0.000000 -0.000002 -0.000002 0.000000 -0.000002 -0.000002 0.000000 -0.000002 -0.000002 0.000000 -0.000002 -0.000002 0.000000 -0.000001 -0.000002 0.000000 -0.000001 -0.000002 0.000000 -0.000002 -0.000002 0.000000 -0.000001 -0.000002 0.000000 -0.000001 -0.000001 -0.000001 -0.000000 -0.000001 -0.000001 -0.000000 0.000001 0.000000 0.000001 
7.857812 10.663963 -14.150002 -115.416892 73.293162 34.195400 0.000000 0.000001 -0.000000 -92.020919 3.304474 0.660787 91.714892 0.365620 -0.337186 -2.690960 0.226639 -3.808954 0.000001 -0.000002 -0.000000 0.000001 -0.000002 -0.000000 -0.000000 -0.000001 0.000000 -37.894521 4.157867 8.145929 85.262658 -8.179454 -3.644486 38.208952 -1.428629 8.408899 -0.000002 0.000000 0.000000 -0.000002 0.000000 0.000000 -0.000004 0.000000 -0.000000 15.153048 -10.823022 -7.442633 10.226784 -5.010031 -4.150916 10.032183 -5.472378 -4.029280 -3.171010 7.239968 -14.352367 -28.146079 11.710050 -14.821606 -0.000000 -0.000000 -0.000001 -0.000000 -0.000000 -0.000001 -0.000000 -0.000000 -0.000001 4.063072 -4.848781 30.216753 -98.229411 29.536163 -48.772817 0.000000 -28.953100 0.000000 0.230752 16.505012 8.705515 -1.540038 3.690181 6.142350 3.939053 7.948698 0.746817 -0.000000 -0.000001 0.000002 0.000001 -0.000001 0.000004 -0.000000 0.000004 -0.000020 -0.000000 0.000001 -0.000002 0.000004 -0.001928 0.015993 0.000001 0.001933 -0.016003 -0.000002 -0.000002 -0.000000 -0.000002 0.000000 0.000007 -0.000003 0.000009 -0.000027 -0.000001 0.000000 -0.000000 -0.018082 4.054259 0.511076 -0.018091 -4.054254 -0.511078 0.000000 0.000002 0.000004 -0.000000 0.000000 -0.000000 5.188618 10.588839 -17.043100 -39.537814 45.274199 97.619803 -0.000136 102.793807 0.000131 6.308719 -5.800629 39.941287 -1.849253 -3.581790 -6.586128 4.637201 -8.634127 -0.225397 0.000000 -0.000001 0.000001 -0.000006 0.000005 0.000015 0.000005 -0.000001 0.000017 -0.000000 0.000001 0.000005 -0.000001 0.000001 0.000008 -0.000002 -0.000001 0.000024 -0.000001 0.000001 -0.000002 -0.000004 0.000004 0.000013 0.000001 -0.000003 0.000024 0.000000 -0.000000 -0.000001 -0.000004 0.000006 0.000012 -0.000001 -0.000006 0.000001 -0.000003 -0.000000 -0.000002 -0.000001 0.000000 -0.000003 -0.000002 0.000003 -0.000000 -0.000002 0.000003 -0.000000 -0.000002 0.000003 -0.000000 -0.000002 0.000003 -0.000000 -0.000002 0.000003 0.000001 -0.000002 0.000001 0.000002 -0.000002 0.000003 -0.000000 -0.000002 0.000003 0.000001 -0.000002 0.000001 0.000002 0.000002 -0.000001 0.000000 0.000002 -0.000001 0.000000 0.000000 0.000001 -0.000000 
7.873327 10.667168 -14.144547 -115.397275 73.216049 34.156086 -0.000000 0.000000 -0.000000 -91.818049 3.255134 0.762799 91.836961 -0.094912 -0.419980 -3.714127 0.278394 -3.922587 0.000000 0.000000 -0.000000 0.000000 0.000000 -0.000000 0.000001 -0.000001 -0.000000 -37.847847 4.135974 8.154758 85.267679 -8.182637 -3.655103 38.186829 -1.415253 8.336279 -0.000001 -0.000000 0.000001 -0.000001 -0.000000 0.000001 -0.000000 -0.000000 -0.000000 15.100392 -10.805140 -7.388452 10.185752 -5.031180 -4.126517 9.990484 -5.493609 -4.003248 -3.062553 7.250387 -14.443437 -28.110472 11.751717 -14.847704 -0.000000 -0.000000 -0.000000 -0.000000 -0.000000 -0.000000 -0.000000 -0.000000 -0.000000 4.107887 -4.790350 29.995056 -98.160241 29.449525 -48.783544 0.000000 -28.882999 -0.000000 0.431175 16.400606 8.843814 -1.540038 3.690190 6.142352 3.939057 7.948697 0.746806 -0.000001 -0.000001 0.000002 0.000001 0.000004 0.000015 0.000000 0.000001 -0.000021 0.000001 -0.000000 -0.000002 0.000002 -0.001933 0.015998 0.000000 0.001930 -0.015998 0.000001 0.000000 0.000002 0.000003 0.000005 0.000009 0.000000 0.000003 -0.000024 -0.000001 -0.000000 -0.000000 -0.018085 4.054255 0.511082 -0.018089 -4.054258 -0.511089 -0.000002 0.000000 0.000002 -0.000000 0.000000 -0.000000 5.169984 10.526234 -17.181288 -39.744683 45.430016 97.916574 -0.000348 102.663515 0.000350 6.837465 -6.419680 39.016096 -1.849253 -3.581792 -6.586147 4.637198 -8.634129 -0.225399 0.000001 -0.000001 -0.000000 -0.000005 0.000001 -0.000010 0.000001 -0.000004 0.000029 -0.000001 0.000001 -0.000001 -0.000006 0.000003 -0.000008 -0.000000 -0.000007 0.000023 -0.000000 0.000000 -0.000000 -0.000005 0.000004 -0.000008 0.000000 -0.000004 0.000020 0.000001 0.000001 -0.000001 -0.000010 0.000008 -0.000009 0.000002 -0.000009 0.000011 -0.000003 -0.000001 -0.000002 -0.000001 0.000001 0.000002 0.000003 -0.000000 -0.000000 0.000003 -0.000000 -0.000000 0.000003 -0.000000 -0.000000 0.000003 -0.000000 -0.000000 0.000003 -0.000000 0.000000 0.000000 0.000000 -0.000000 0.000003 -0.000000 -0.000000 0.000003 -0.000000 0.000000 0.000000 0.000000 -0.000000 -0.000001 0.000000 0.000000 -0.000001 0.000000 0.000000 -0.000000 0.000000 -0.000000 
7.889650 10.672836 -14.138641 -115.386948 73.141832 34.123731 -0.000000 -0.000001 -0.000000 -91.618307 3.201324 0.867028 91.952296 -0.537457 -0.502074 -4.688017 0.328302 -4.024077 -0.000001 -0.000001 -0.000000 -0.000001 -0.000001 -0.000000 0.000001 0.000002 -0.000000 -37.797960 4.108078 8.163755 85.272986 -8.184758 -3.664598 38.162319 -1.405091 8.263535 0.000000 0.000001 -0.000001 0.000000 0.000001 -0.000001 -0.000002 0.000000 0.000001 15.050049 -10.787299 -7.334952 10.146128 -5.051341 -4.102139 9.950384 -5.513608 -3.977271 -2.944875 7.257576 -14.552609 -28.093673 11.789462 -14.848551 0.000001 -0.000000 -0.000003 0.000001 -0.000000 -0.000003 0.000001 -0.000000 -0.000003 4.142351 -4.736914 29.766661 -98.061074 29.336219 -48.805509 0.000001 -28.810151 0.000000 0.727779 16.318193 8.949746 -1.540037 3.690176 6.142349 3.939056 7.948713 0.746812 -0.000001 0.000001 0.000003 0.000004 -0.000004 0.000007 -0.000001 0.000004 -0.000010 -0.000000 0.000000 -0.000002 0.000004 -0.001935 0.015996 -0.000001 0.001932 -0.016005 0.000001 0.000001 0.000000 0.000001 -0.000005 0.000009 -0.000000 0.000007 -0.000022 -0.000000 0.000002 -0.000000 -0.018084 4.054249 0.511074 -0.018088 -4.054251 -0.511088 0.000001 0.000001 0.000003 0.000000 0.000000 0.000000 5.149345 10.461779 -17.293224 -39.931601 45.580516 98.183771 0.000215 102.561690 -0.000205 7.264739 -6.997015 38.122779 -1.849252 -3.581792 -6.586129 4.637203 -8.634128 -0.225423 0.000001 0.000001 -0.000001 0.000005 -0.000004 -0.000013 -0.000001 -0.000000 0.000030 -0.000002 0.000001 0.000000 0.000006 -0.000007 -0.000005 -0.000004 -0.000002 0.000033 -0.000001 0.000001 -0.000004 0.000003 -0.000004 -0.000014 -0.000001 0.000000 0.000021 -0.000002 0.000001 0.000002 0.000003 -0.000003 -0.000016 -0.000003 0.000003 0.000048 0.000000 0.000000 0.000004 -0.000000 0.000000 -0.000003 0.000000 -0.000002 -0.000000 0.000000 -0.000002 -0.000000 0.000000 -0.000002 -0.000000 0.000000 -0.000002 -0.000000 0.000000 -0.000002 0.000000 -0.000000 0.000000 0.000000 0.000000 -0.000002 -0.000000 0.000000 -0.000002 0.000000 -0.000000 0.000000 0.000000 -0.000000 0.000001 -0.000000 -0.000000 0.000001 -0.000000 -0.000000 -0.000001 -0.000000 
7.906654 10.680893 -14.132484 -115.387221 73.071037 34.098903 -0.000000 -0.000001 0.000000 -91.423926 3.144549 0.972156 92.060520 -0.951220 -0.583213 -5.602421 0.374211 -4.104143 0.000000 -0.000001 -0.000000 0.000000 -0.000001 -0.000000 -0.000000 0.000001 0.000000 -37.744414 4.075461 8.173872 85.277261 -8.185600 -3.671870 38.136744 -1.398970 8.192339 -0.000000 -0.000001 0.000001 -0.000000 -0.000001 0.000001 -0.000001 0.000000 -0.000000 15.001903 -10.768990 -7.283455 10.107555 -5.069759 -4.078105 9.911561 -5.531529 -3.951644 -2.814091 7.259184 -14.677855 -28.098657 11.824094 -14.824902 0.000000 0.000000 -0.000002 0.000000 0.000000 -0.000002 0.000000 0.000000 -0.000002 4.162937 -4.692297 29.537044 -97.926082 29.197088 -48.839626 0.000001 -28.731491 0.000000 1.123761 16.261955 9.017417 -1.540043 3.690182 6.142353 3.939058 7.948700 0.746802 -0.000001 0.000001 0.000002 -0.000001 -0.000004 0.000006 0.000001 0.000007 -0.000016 -0.000000 0.000000 -0.000000 0.000000 -0.001929 0.015984 -0.000001 0.001933 -0.016000 -0.000000 0.000000 0.000002 -0.000001 -0.000003 0.000004 -0.000001 0.000009 -0.000025 -0.000001 0.000000 -0.000000 -0.018089 4.054254 0.511075 -0.018086 -4.054259 -0.511084 0.000001 0.000001 0.000003 0.000001 -0.000000 0.000000 5.128158 10.398788 -17.376814 -40.082917 45.719049 98.404653 0.000002 102.501673 0.000000 7.610469 -7.564147 37.288024 -1.849253 -3.581791 -6.586133 4.637196 -8.634128 -0.225413 -0.000001 -0.000003 0.000001 -0.000002 0.000001 0.000005 -0.000000 -0.000002 0.000037 0.000000 -0.000002 0.000003 -0.000000 -0.000001 -0.000001 -0.000002 0.000000 0.000035 0.000001 -0.000000 -0.000002 0.000001 -0.000000 0.000002 -0.000000 -0.000002 0.000026 -0.000002 -0.000001 0.000002 0.000002 -0.000003 -0.000010 -0.000004 0.000002 0.000036 -0.000000 -0.000001 0.000000 -0.000000 0.000000 -0.000003 0.000001 -0.000000 -0.000001 0.000001 -0.000000 -0.000001 0.000001 -0.000000 -0.000001 0.000001 -0.000000 -0.000001 0.000001 -0.000000 -0.000000 0.000000 0.000000 0.000000 0.000001 -0.000000 -0.000001 0.000001 -0.000000 -0.000000 0.000000 0.000000 0.000000 0.000001 0.000000 -0.000000 0.000001 0.000000 -0.000000 -0.000000 -0.000001 0.000000 
